<?xml version="1.0" encoding="utf-8"?>
<!-- Generator: Adobe Illustrator 25.0.1, SVG Export Plug-In . SVG Version: 6.00 Build 0)  -->
<svg version="1.1" id="レイヤー_1" xmlns="http://www.w3.org/2000/svg" xmlns:xlink="http://www.w3.org/1999/xlink" x="0px"
	 y="0px" viewBox="0 0 32.6 32.5" style="enable-background:new 0 0 32.6 32.5;" xml:space="preserve">
<style type="text/css">
	.st0{fill:#FFFFFF;}
	.st1{fill-rule:evenodd;clip-rule:evenodd;fill:#1A1414;}
</style>
<g id="レイヤー_2_1_">
	<g id="Layer_1">
		<circle class="st0" cx="17.4" cy="12.3" r="9.4"/>
		<path class="st1" d="M17.4,2.3C12,2.3,7.7,6.7,7.7,12c0,4.1,2.7,7.9,6.7,9.3c0.5,0.1,0.6-0.3,0.6-0.5s0-0.9,0-1.7
			c-2.7,0.6-3.2-1.3-3.2-1.3c-0.1-0.6-0.5-1-1-1.4c-0.9-0.6,0.1-0.6,0.1-0.6c0.6,0.1,1.2,0.5,1.5,1c0.5,1,1.8,1.4,2.8,0.8l0,0
			c0-0.5,0.3-0.9,0.6-1.3c-2.2-0.3-4.4-1-4.4-4.8c0-0.9,0.4-1.9,1-2.6c-0.3-0.8-0.3-1.8,0.1-2.6c0,0,0.8-0.3,2.7,1
			C17,7,18.7,7,20.4,7.4c1.8-1.3,2.7-1,2.7-1c0.4,0.8,0.4,1.7,0.1,2.6c0.6,0.6,1,1.7,1,2.6c0,3.7-2.3,4.5-4.4,4.8
			c0.5,0.5,0.8,1.2,0.6,1.8c0,1.3,0,2.3,0,2.7s0.1,0.5,0.6,0.5c5-1.8,7.7-7.2,6.1-12.4C25.2,4.9,21.6,2.3,17.4,2.3z"/>
	</g>
</g>
</svg>
