<svg xmlns="http://www.w3.org/2000/svg" width="350" height="37.838" viewBox="0 0 350 37.838">
  <path id="前面オブジェクトで型抜き_3" data-name="前面オブジェクトで型抜き 3" d="M1822,37.838H1472V0h350V37.837ZM1573.566,20.91v0c.024.348.024.5.024.82a6.789,6.789,0,0,1-1.729,5.078A12.088,12.088,0,0,1,1567,29.6l.15.348a15.62,15.62,0,0,0,4.889-1.664,5.894,5.894,0,0,0,2.558-2.691,11.613,11.613,0,0,0,.8-3.833c.788-.221.927-.3.927-.5,0-.183-.217-.3-.727-.4a12.6,12.6,0,0,0-1.529-.3,11.276,11.276,0,0,0,3.084-3.162h1.5a9.641,9.641,0,0,0,2.206,2.29,20.373,20.373,0,0,0,7.422,3.909c.377-1.1.749-1.469,1.655-1.643l.025-.324a19.337,19.337,0,0,1-7.772-2.167,14.383,14.383,0,0,1-2.958-2.066h4.939v.673c0,.257.112.348.427.348a3.48,3.48,0,0,0,1.078-.149.387.387,0,0,0,.2-.349c-.05-1.668-.05-2.416-.05-3.908,0-.839,0-2.941.026-4.332.734-.339.978-.491.978-.721,0-.1-.051-.174-.2-.3l-.513-.353c-.375-.259-.621-.428-1.142-.767l0,0c-.5.495-.648.644-1.1,1.165h-11.985a17.015,17.015,0,0,0-2.031-1.17c.023,1.188.075,4.776.075,6.6,0,1.284-.026,2.283-.075,4.082,0,.254.129.348.476.348a4.7,4.7,0,0,0,.978-.124.28.28,0,0,0,.251-.324V17.4h3.61a12.129,12.129,0,0,1-3.133,3.162,19.141,19.141,0,0,1-5.867,2.887l.175.4a19.425,19.425,0,0,0,7.22-2.936ZM1551.677,22.5V24.57c0,.91-.074,3.613-.125,4.829v.05c0,.22.045.3.3.3,1.253,0,1.429-.051,1.455-.422-.017-1.741-.026-3.307-.026-4.656V22.205a20.4,20.4,0,0,0,3.711,3.534,20.928,20.928,0,0,0,5.54,2.788c.6-1.064.858-1.3,1.731-1.543v-.374a19.094,19.094,0,0,1-2.657-.424,19.659,19.659,0,0,1-5.015-1.967,14.643,14.643,0,0,1-2.933-2.29h9.828c.18,0,.276-.052.276-.149a.4.4,0,0,0-.06-.148c-.013-.024-.026-.049-.04-.076-.287-.23-.511-.414-.713-.578-.456-.372-.786-.641-1.443-1.14-.649.645-.845.839-1.479,1.519h-6.745V19.094h7.7c.207,0,.25-.068.25-.125a.254.254,0,0,0-.1-.174c-.828-.7-1.122-.941-1.908-1.584l-.072-.059c-.39.387-.589.608-.841.887-.117.13-.259.288-.439.482h-4.588v-2.29h9.528c.183,0,.276-.042.276-.125a.268.268,0,0,0-.076-.174c-.906-.75-1.2-.966-2.156-1.643-.46.42-.672.634-.992.957l-.017.017c-.113.114-.24.241-.394.4h-4.288a20.125,20.125,0,0,0,1.629-1.32l.219-.178c.135-.109.3-.242.483-.394.191.023.493.024.551.024.372,0,.552-.081.552-.249,0-.1-.125-.223-.351-.348-1.1-.623-1.1-.623-1.93-1.1h7.947c.163,0,.251-.02.251-.123,0-.047-.021-.1-.126-.2-.95-.819-1.248-1.066-2.256-1.817l-1.4,1.568h-3.184c.986-.855,1.089-.956,2.81-2.642l.1-.1c.836-.023,1.078-.09,1.078-.3,0-.1-.044-.147-.226-.249-.453-.25-1.472-.68-2.206-.972-.305,1.059-.643,1.66-2.232,4.257h-1.454V8.09c.84-.253.977-.326.977-.523,0-.125-.075-.2-.25-.249l-.006,0a10.778,10.778,0,0,0-2.351-.3c.05.846.05,1.136.05,2.215v2.29H1551.3V8.041c.775-.231.953-.329.953-.524,0-.272-.362-.345-2.582-.523l0,.058c.047.934.07,1.4.07,2.183v2.29h-5.365a9.685,9.685,0,0,1-2.658-.323l.176,1.021a16.341,16.341,0,0,1,2.483-.124h3.811l-.227.3a9.131,9.131,0,0,1,1.429,2.664,2.281,2.281,0,0,0,.277.6h-3.912a9.644,9.644,0,0,1-2.507-.275l.176.971a19.42,19.42,0,0,1,2.332-.123h5.917v2.29h-4.488a12.007,12.007,0,0,1-2.607-.275l.15,1a21.772,21.772,0,0,1,2.457-.149h4.488v2.265h-6.945a11.671,11.671,0,0,1-2.757-.249l.15,1.021a17.184,17.184,0,0,1,2.607-.2h5.466a15.162,15.162,0,0,1-2.807,2.714,25.758,25.758,0,0,1-6.218,3.61l.176.4a24.279,24.279,0,0,0,5.24-2.166,22.857,22.857,0,0,0,5.087-3.981Zm90.359,4.855-.024.4c2.376.521,2.5.611,2.757,1.917a6.563,6.563,0,0,0,1.88-.671,1.55,1.55,0,0,0,.7-1.494V19.293c1.719-.891,2.214-1.16,3.56-1.992l-.2-.423a26.534,26.534,0,0,1-3.36,1.319V13.069h3.36c.174,0,.3-.073.3-.175a.715.715,0,0,0-.032-.156l-.006-.021-.012-.047a20.594,20.594,0,0,0-1.679-1.642c-.45.508-.636.737-.972,1.153l-.073.09-.183.226h-.7V8.315c.783-.176,1.1-.327,1.1-.523,0-.229-.369-.352-1.579-.524-.11-.022-.276-.049-.469-.08-.24-.039-.539-.088-.835-.143a22.524,22.524,0,0,1,.125,2.887V12.5h-1.579a7.444,7.444,0,0,1-2.082-.275l.2,1a8.348,8.348,0,0,1,1.88-.149h1.579V18.72a17.485,17.485,0,0,1-3.661.87c.828,2.415.828,2.415,1.028,2.415s.3-.277.377-1.021c.118-.059.342-.147.682-.281l.3-.117a8.538,8.538,0,0,0,1.279-.572v7.119c0,.272-.1.374-.376.374-.874-.018-1.193-.035-2.049-.083h-.009Zm-61.6-6.647c.05.722.05,1.085.05,2.166,0,3.784,0,3.784-.05,6.522,0,.2.149.273.551.273a3.818,3.818,0,0,0,1.053-.149c.131-.053.176-.134.176-.324-.05-2.221-.075-3.585-.075-4.879,0-.766,0-.846.024-2.515.556-.167.752-.267.752-.5s-.51-.349-2.482-.6Zm71.178-3.311c.048,1.175.076,2.024.076,5.8,0,2.6-.026,3.68-.1,6.1,0,.221.069.275.351.275a5.722,5.722,0,0,0,1.2-.124c.147-.049.2-.143.2-.349V28.055h7.019v1.17c0,.224.1.324.326.324h.051a1.427,1.427,0,0,1,.264-.029c.085-.005.179-.011.287-.021.66-.025.8-.1.8-.422-.05-3.013-.05-3.013-.05-5.3V19.865c.637-.355.852-.524.852-.673,0-.1-.07-.195-.251-.348-.462-.364-.688-.537-1.063-.823l-.005,0-.064-.048-.322-.246a12.292,12.292,0,0,0-.978,1h-6.444a19.083,19.083,0,0,0-2.156-1.32Zm-31.289-9.634c.128,2.827.15,5.126.15,9.211,0,4.708-.022,7.742-.15,12.248a.442.442,0,0,0,.477.3,8.4,8.4,0,0,0,1.2-.1c.154-.025.227-.1.277-.3V27.507h11.583V29.2c.079.234.16.3.376.3a4.53,4.53,0,0,0,1.3-.124c.129-.076.177-.157.226-.372-.15-3.809-.15-3.809-.15-18.746.64-.44.8-.57.8-.746,0-.076-.078-.176-.251-.324-.208-.165-.369-.295-.515-.412-.3-.238-.529-.426-.964-.758-.627.673-.627.673-1.128,1.171H1622.63a22.621,22.621,0,0,0-2.056-1.277l-.251-.143Zm187.787,7.668h0V16.7c0,4.284-.414,6.518-1.58,8.538A11.732,11.732,0,0,1,1803,29.076l.2.324a12.722,12.722,0,0,0,3.811-2.714c1.888-1.975,2.557-4.046,2.557-7.917V15.11a18.612,18.612,0,0,0,3.41-1.1c.714-.355.878-.5.878-.8,0-.4-.7-.747-1.5-.747a.8.8,0,0,0-.527.175,5.541,5.541,0,0,1-2.281,1.071,11.983,11.983,0,0,1,.326-3.584,2.853,2.853,0,0,0,.125-.6c0-.744-1.209-1.244-3.009-1.244-.822,0-1,.049-1.378.372,1.184.276,1.881.651,2.131,1.145.219.412.3,1.357.3,3.485v.872a14.528,14.528,0,0,1-3.611.523,4.228,4.228,0,0,1-2.908-1l-.25.3a4.767,4.767,0,0,0,3.937,1.768,14.342,14.342,0,0,0,2.907-.323ZM1672.1,8.389a1.019,1.019,0,0,0-.7.249c1.766.741,2.031,1.174,2.031,3.311,0,.879-.023,1.547-.176,4.282-.12,2.169-.2,4.579-.2,6a8.467,8.467,0,0,0,.7,4.207,4.54,4.54,0,0,0,4.162,2.117c3.11,0,6.4-1.927,8.8-5.154l-.3-.273a15.407,15.407,0,0,1-3.184,2.216,13.005,13.005,0,0,1-5.716,1.593,3.723,3.723,0,0,1-2.232-.673c-.7-.573-1-1.466-1-2.987a77.064,77.064,0,0,1,1.3-11.949,2.574,2.574,0,0,0,.226-.9c0-.521-.49-1.015-1.455-1.469A6.287,6.287,0,0,0,1672.1,8.389Zm-70.927,8.464a1.424,1.424,0,0,1,1.278.747,4.175,4.175,0,0,1,.351,1.967,18.182,18.182,0,0,0-3.109,2.216,4.744,4.744,0,0,0-1.805,3.411,2.718,2.718,0,0,0,1.856,2.638,13.135,13.135,0,0,0,5.089.723,28.314,28.314,0,0,0,4.488-.349c.495-.1.778-.344.778-.673,0-.546-.984-1.244-1.756-1.244a1.864,1.864,0,0,0-.476.074,18.176,18.176,0,0,1-5.04.7c-2.817,0-4.187-.651-4.187-1.991a3.345,3.345,0,0,1,1.228-2.316,12.791,12.791,0,0,1,2.934-1.967,23.717,23.717,0,0,1-.176,2.664,2.655,2.655,0,0,0-.026.424.751.751,0,0,0,.8.747.8.8,0,0,0,.7-.474,6.872,6.872,0,0,0,.2-2.141c0-1.081,0-1.22-.025-2.016A40.968,40.968,0,0,1,1611,17.425c.7-.149.9-.322.9-.772,0-.987-1.721-2.514-2.833-2.514a1.218,1.218,0,0,0-.577.149c.711.293,1.154.742,1.154,1.17,0,.443-.577.834-3.084,2.091-2.032,1.021-2.032,1.021-2.457,1.22a2.762,2.762,0,0,0-2.809-2.489,6.825,6.825,0,0,0-3.234,1l.115-.162c.4-.562.619-.872,1.239-1.829.559-.845.872-1.312,1.329-1.942a40.739,40.739,0,0,0,5.466-1.419c.746-.247,1.078-.493,1.078-.8,0-.476-.707-.822-1.68-.822a.709.709,0,0,0-.476.175c-.829.7-1.5,1-3.611,1.593.176-.249.176-.249.627-.971.081-.111.179-.25.282-.4l.011-.016,0-.006c.148-.212.3-.43.431-.6.307-.382.4-.551.4-.723,0-.312-.3-.58-.9-.822a5.355,5.355,0,0,0-1.955-.422,2,2,0,0,0-1.128.273c1.28.318,1.779.709,1.779,1.394a6.633,6.633,0,0,1-.877,2.539,13.266,13.266,0,0,1-2.683.324,4.153,4.153,0,0,1-3.134-1.17l-.276.223a4.055,4.055,0,0,0,3.735,1.917,9.5,9.5,0,0,0,1.68-.149,19.988,19.988,0,0,1-4.663,5.352c-.7.571-.728.593-.728,1.121,0,.789.272,1.32.677,1.32.265,0,.473-.179.928-.8C1597.537,18.168,1599.52,16.853,1601.17,16.853Zm126.762,4.033c-3.959,0-6.619,1.5-6.619,3.734a3.588,3.588,0,0,0,2.432,3.136,13.349,13.349,0,0,0,4.814.747,12.707,12.707,0,0,0,3.434-.374.516.516,0,0,0,.377-.474c0-.616-.881-1.319-1.655-1.319a1.258,1.258,0,0,0-.225.034h-.006l-.07.014a12.329,12.329,0,0,1-3.159.349c-3.1,0-4.739-.818-4.739-2.365a2.239,2.239,0,0,1,1.5-2.017,6.967,6.967,0,0,1,3.134-.7,10.059,10.059,0,0,1,5.817,1.718c.405.327.478.374.7.374.5,0,.827-.635.827-1.619a2.377,2.377,0,0,0-.426-1.344c-.577-.946-.577-.946-1.154-1.967l-.034-.061c-.21-.37-.359-.635-1.094-1.881,3.409-1.195,4.863-1.961,4.863-2.565a.616.616,0,0,0-.677-.621.634.634,0,0,0-.2.024l-.451.05a5.143,5.143,0,0,1-2.106-.7l-.176.249a9.7,9.7,0,0,1,1.3,1.17,18.23,18.23,0,0,1-3.109,1.37c-.506-.82-.854-1.409-1.062-1.762-.072-.122-.127-.216-.166-.279-.3-.5-.3-.5-.551-.922,1.859-.585,3.237-1.05,3.685-1.245,1.262-.53,1.629-.738,1.629-1.1,0-.423-.512-.647-1.479-.647a1.116,1.116,0,0,0-.8.249c-.669.689-1.238.981-3.584,1.842-1-1.967-1-1.967-1.028-2.465-.051-.7-.074-.77-.3-.971a3.042,3.042,0,0,0-1.7-.324,4.314,4.314,0,0,0-1.154.124c-.665.146-.825.218-1,.647a4.3,4.3,0,0,1,1.931.523,10.459,10.459,0,0,1,2.156,2.788,13.715,13.715,0,0,1-4.112.747,5.036,5.036,0,0,1-3.334-1.121l-.2.273a4.824,4.824,0,0,0,3.661,1.818,16.326,16.326,0,0,0,4.663-.8c.541.841,1.2,1.958,1.755,2.988a19.415,19.415,0,0,1-5.366.945,3.281,3.281,0,0,1-2.958-1.469l-.3.225a3.627,3.627,0,0,0,1.2,1.493,4.349,4.349,0,0,0,2.607.723,18.409,18.409,0,0,0,5.34-.946,24.33,24.33,0,0,1,1.88,4.231A21.159,21.159,0,0,0,1727.932,20.886Zm-201.476,6.995c1.147,0,2.29.042,3.4.125s2.249.124,3.4.124a12.365,12.365,0,0,0,2.156-.187,6,6,0,0,0,1.88-.647,3.751,3.751,0,0,0,1.329-1.22,3.4,3.4,0,0,0,.5-1.9,4.483,4.483,0,0,0-.965-3,5.72,5.72,0,0,0-2.7-1.68v-.05a3.7,3.7,0,0,0,1.768-1.257,3.214,3.214,0,0,0,.715-2.029,3.719,3.719,0,0,0-.652-2.24,4.919,4.919,0,0,0-1.629-1.431,7.344,7.344,0,0,0-2.143-.759,11.782,11.782,0,0,0-2.219-.225c-.769,0-1.495.034-2.157.1s-1.34.1-2.005.1c-.505,0-1.02-.008-1.529-.024s-1.028-.042-1.53-.074v.3a5.108,5.108,0,0,1,1.4.275,1.54,1.54,0,0,1,.764.621,2.55,2.55,0,0,1,.327,1.108c.042.459.063,1.041.063,1.73v8.315c0,.689-.021,1.272-.063,1.73a2.667,2.667,0,0,1-.314,1.108,1.473,1.473,0,0,1-.752.621,5.026,5.026,0,0,1-1.378.275v.3c.383-.034.765-.058,1.165-.076S1526.082,27.881,1526.456,27.881Zm-33-9.634v0l3.66,9.88h.427l5.716-13.244c.148-.329.292-.639.439-.946a4.471,4.471,0,0,1,.6-.933,3.286,3.286,0,0,1,.877-.734,3.132,3.132,0,0,1,1.266-.374v-.3c-.483.033-.972.058-1.454.074s-.983.024-1.455.024c-.521,0-1.065-.008-1.616-.024s-1.105-.042-1.642-.074v.3a5.2,5.2,0,0,1,.69.113,3.637,3.637,0,0,1,.74.249,1.812,1.812,0,0,1,.589.422.915.915,0,0,1,.238.635,4.084,4.084,0,0,1-.15.9,8.731,8.731,0,0,1-.351,1.1l-3.811,9.534-3.736-9.833c-.167-.43-.289-.774-.363-1.021a2.193,2.193,0,0,1-.113-.6,1,1,0,0,1,.25-.7,1.823,1.823,0,0,1,.615-.435,3.782,3.782,0,0,1,.777-.249,5.806,5.806,0,0,1,.74-.113v-.3c-.7.033-1.407.058-2.093.074-.705.016-1.41.024-2.093.024-.538,0-1.094-.008-1.655-.024s-1.118-.042-1.655-.074v.3a3.047,3.047,0,0,1,2.833,2.067l1.3,3.236-3.109,7.642-3.485-9.136q-.193-.487-.349-.884l-.127-.322a2.467,2.467,0,0,1-.2-.859,1.528,1.528,0,0,1,.213-.847,1.552,1.552,0,0,1,.551-.51,2.464,2.464,0,0,1,.765-.262c.283-.049.57-.091.853-.124v-.3c-.652.033-1.31.058-1.956.074-.662.016-1.328.024-1.98.024-.569,0-1.168-.008-1.78-.024s-1.222-.043-1.8-.074v.3c.284.05.562.1.827.162a2.18,2.18,0,0,1,.778.349,3.227,3.227,0,0,1,.752.8,7.257,7.257,0,0,1,.751,1.507l5.09,13.417h.451l4.185-9.88Zm16.4,9.634h9.427c.276,0,.572.008.877.024s.6.043.878.076l2.282-5-.276-.225a17.487,17.487,0,0,1-1.78,2.041,8.92,8.92,0,0,1-1.868,1.394,7.812,7.812,0,0,1-2.182.8,13.3,13.3,0,0,1-2.7.249c-.232,0-.478-.012-.751-.037s-.532-.055-.778-.087c-.219-.029-.442-.061-.7-.1-.213-.032-.4-.066-.551-.1V19.218h1.6a10.462,10.462,0,0,1,1.731.125,2.911,2.911,0,0,1,1.215.472,2.642,2.642,0,0,1,.815,1.008,7.5,7.5,0,0,1,.551,1.706h.3c0-.583-.008-1.187-.026-1.793s-.025-1.208-.025-1.792c0-.567.008-1.162.025-1.768s.026-1.2.026-1.792h-.3a3.344,3.344,0,0,1-1.241,2.5,4.867,4.867,0,0,1-2.745.684c-.332,0-.656.009-.965.026s-.639.024-.965.024V12.4c1.175-.1,2.355-.149,3.511-.149a10.565,10.565,0,0,1,1.8.149,4.631,4.631,0,0,1,1.566.573,4.136,4.136,0,0,1,1.254,1.182,6.185,6.185,0,0,1,.865,1.955l.326-.1c-.034-.457-.066-.861-.1-1.232s-.05-.75-.05-1.108v-1c0-.165,0-.341.013-.523.01-.2.022-.378.037-.547-1.208.033-2.406.058-3.56.074-1.19.016-2.372.024-3.511.024h-2.068c-.6,0-1.187,0-1.73-.013-.523-.007-1.054-.02-1.579-.037l-.093,0q-.724-.023-1.525-.046v.3a5.457,5.457,0,0,1,1.429.275,1.476,1.476,0,0,1,.778.621,2.658,2.658,0,0,1,.313,1.108c.042.457.063,1.04.063,1.73v8.315c0,.691-.021,1.273-.063,1.73a2.649,2.649,0,0,1-.313,1.108,1.481,1.481,0,0,1-.752.621,5.1,5.1,0,0,1-1.4.275v.3c.483-.034.959-.058,1.455-.076S1509.386,27.881,1509.858,27.881ZM1772.585,24.1h0l-.226.323c2.656,2.165,2.708,2.22,2.783,2.913a.581.581,0,0,0,.677.573,3.544,3.544,0,0,0,2.407-1.12c1.456-1.621,2.733-5.8,2.733-8.937,0-2.613-1.042-3.883-3.184-3.883a8.782,8.782,0,0,0-2.182.3,23.991,23.991,0,0,1,1.6-3.386c.305-.43.351-.524.351-.722,0-.517-.607-.965-1.755-1.294a6.825,6.825,0,0,0-1.68-.325,1.135,1.135,0,0,0-.752.249c1.443.47,1.93.891,1.93,1.669a13.906,13.906,0,0,1-1.028,4.082,26.19,26.19,0,0,1-4.262.872c-.931,0-1.376-.32-1.9-1.37a1.609,1.609,0,0,0-.151.548,3.914,3.914,0,0,0,.828,1.891,1.867,1.867,0,0,0,1.1.747,1.337,1.337,0,0,0,.728-.274,19.7,19.7,0,0,1,3.259-1.294l-.751,1.618c-1.053,2.29-1.053,2.29-2.006,4.132a16.066,16.066,0,0,1-1.856,2.937,1.622,1.622,0,0,0-.576,1.394c0,1.076.272,1.718.727,1.718.232,0,.429-.155.6-.473.4-.692,1.233-2.5,2.232-4.829l.789-1.854c.377-.884.625-1.468.691-1.631,1.1-2.539,1.1-2.539,1.454-3.385a8.174,8.174,0,0,1,2.633-.524c1.315,0,1.781.593,1.781,2.266a19.1,19.1,0,0,1-1.479,6.7c-.658,1.583-1.054,2.091-1.629,2.091a12.693,12.693,0,0,1-3.887-1.718Zm-69.549-2.29h0a5.076,5.076,0,0,0-.226,1.569,3.81,3.81,0,0,0,2.131,3.61,11.245,11.245,0,0,0,4.638.8c1.991,0,2.958-.269,2.958-.822,0-.221-.143-.442-.451-.7a2.864,2.864,0,0,0-1.278-.6,1.1,1.1,0,0,0-.427.1,6.035,6.035,0,0,1-2.407.372,7.2,7.2,0,0,1-2.683-.473,3.073,3.073,0,0,1-1.9-3.012c0-.1,0-.4.026-.773l-.377-.074Zm53.152-5.277a3.478,3.478,0,0,1,3.735,3.61,5.229,5.229,0,0,1-2.106,4.033,14.458,14.458,0,0,1-6.945,3.012l.1.473c3.728-.422,5.957-1.105,7.947-2.439a5.869,5.869,0,0,0,2.707-4.68c0-2.843-2.3-4.829-5.59-4.829a11.074,11.074,0,0,0-1.956.15,31.428,31.428,0,0,0-5.716,1.767,8.272,8.272,0,0,1-2.207.7c-.607,0-1.159-.486-1.554-1.369a1.163,1.163,0,0,0-.176.5c0,1.125,1.5,2.937,2.432,2.937.3,0,.526-.124,1-.473C1750.479,17.858,1753.746,16.529,1756.188,16.529Zm-57.239-1.045v0c-1.662,4.8-2.656,7.053-3.936,8.91-.534.757-.551.825-.551,1.22a3.686,3.686,0,0,0,.351,1.444c.148.344.326.5.577.5.528,0,.857-.637,1.855-3.585,1.379-4.057,1.379-4.057,1.88-5.551.752-2.315.752-2.315,1.052-3.162a30.216,30.216,0,0,0,4.388-1.443c1.074-.483,1.455-.8,1.455-1.221,0-.2-.131-.35-.4-.448a4.67,4.67,0,0,0-1.329-.273c-.2,0-.3.05-.7.424a8.494,8.494,0,0,1-2.908,1.519,20.652,20.652,0,0,1,1.5-3.561c.3-.423.3-.423.3-.6,0-.382-.39-.727-1.128-1a6.4,6.4,0,0,0-2.156-.472,1.331,1.331,0,0,0-.778.223c1.414.477,1.781.8,1.781,1.569a17.715,17.715,0,0,1-.853,4.207,11.7,11.7,0,0,1-3.184.474,3.434,3.434,0,0,1-2.759-1.37l-.3.2c.926,1.591,1.921,2.241,3.434,2.241a12.87,12.87,0,0,0,2.406-.249Zm96.225-6.771h0a4.154,4.154,0,0,1,.9,2.39,17.724,17.724,0,0,1-.4,3.086,30.375,30.375,0,0,0-.551,5.651,14.239,14.239,0,0,0,1.2,6.448c.3.578.677.9,1.052.9.428,0,.627-.372.627-1.17a2.793,2.793,0,0,0-.025-.4v-.273a48.98,48.98,0,0,1,1.529-7.543l-.377-.1c-.459,1.369-1.968,5.435-2.256,6.148a8.855,8.855,0,0,1-.6-3.883,20.788,20.788,0,0,1,1.3-6.92,3.456,3.456,0,0,0,.35-1.369,3.4,3.4,0,0,0-1.1-1.992,2.541,2.541,0,0,0-1.655-.971Zm-8.123,12.8a1.624,1.624,0,0,1,1.028.249.951.951,0,0,0,.576.173c.628,0,1-.5,1-1.344a5.84,5.84,0,0,0-1.429-3.535,8.761,8.761,0,0,0-4.588-2.987l-.2.349a7.3,7.3,0,0,1,3.435,3.311,6.334,6.334,0,0,1,.777,2.39,38.29,38.29,0,0,1-3.836,1.27l.1.348A22.446,22.446,0,0,1,1787.052,21.508Zm-78.026-4.829h0l0,0c-.782.777-1.008.975-1.227,1.167-.9.822-.9.822-1.2,1.121l.15.223c.4-.223.4-.223.878-.523a11.506,11.506,0,0,1,1.231-.766l.147-.08a3.661,3.661,0,0,1,1.931-.5c.713-.025.953-.17.953-.573a.828.828,0,0,0-.4-.7,3.075,3.075,0,0,0-1.58-.448,11.62,11.62,0,0,0-5.816,1.668l.15.324A13.21,13.21,0,0,1,1709.025,16.679Zm-57.537-9.51a18.594,18.594,0,0,1,.076,2.24v5.452c.126,1.246.58,1.419,3.735,1.419,8.1,0,8.75-.076,8.75-1.021a.624.624,0,0,0-.451-.547c-.476-.15-.476-.176-.476-.424v-.4l.176-2.664-.327-.026-.011.033c-.544,1.521-.817,2.284-1.067,2.83-.275.571-.4.7-.752.747-.419.073-2.326.124-4.638.124-2.43,0-2.931-.024-3.158-.149-.124-.074-.151-.171-.151-.548V12.447a46.668,46.668,0,0,0,8.6-2.439,1.628,1.628,0,0,0,.477.1l.351-.024.226.024c.1,0,.326-.174.326-.274,0-.2,0-.2-2.332-1.469a17.667,17.667,0,0,1-4.413,2.439c-1.151.477-1.4.562-3.011,1.118l-.223.077V8.439c.893-.3,1.028-.371,1.028-.573,0-.273-.1-.3-2.733-.7Zm-106.7.125-.227.223a9.78,9.78,0,0,1,1.88,2.888c.258.613.382.772.6.772.355,0,.827-.795.827-1.394,0-.768-.893-1.489-3.083-2.489Zm115.58,20.189h-7.019V23.425h7.019v4.057Zm-128.066-.1a9.79,9.79,0,0,1-2.093-.236,5.38,5.38,0,0,1-.852-.262.856.856,0,0,1-.464-.348v-6.97a6.185,6.185,0,0,0,1.5.361,13.9,13.9,0,0,0,1.555.087,8.52,8.52,0,0,0,1.228-.087c.37-.053.764-.114,1.2-.186a6.518,6.518,0,0,1,1.555,1.506,3.292,3.292,0,0,1,.677,2,4,4,0,0,1-1.141,3.074A4.5,4.5,0,0,1,1532.3,27.383Zm101.566-.448H1622.28v-5.7h11.583v5.7Zm26.5-4.082h-7.019v-3.56h7.019v3.559Zm-26.5-2.216H1622.28V15.508h11.583v5.127ZM1531.7,19.367a8.189,8.189,0,0,1-1.428-.124,4.859,4.859,0,0,1-1.379-.474V12.547a4.777,4.777,0,0,1,1.154-.249c.375-.033.771-.05,1.178-.05a4.929,4.929,0,0,1,1.592.261,4.159,4.159,0,0,1,1.341.747,3.8,3.8,0,0,1,.928,1.158,3.245,3.245,0,0,1,.351,1.519,3.138,3.138,0,0,1-1.065,2.551A4.062,4.062,0,0,1,1531.7,19.367Zm52.475-2.539h-5.616V13.343h5.616v3.484Zm-7.22,0h-5.39V13.343h5.39v3.484Zm-22.439-1.17h-4.238a1.43,1.43,0,0,0,.6-1.022c0-.575-.507-1.073-2.582-2.539h7.9a11.972,11.972,0,0,1-1.679,3.56Zm79.352-.723H1622.28V9.759h11.583v5.176Zm-49.693-2.19h-5.616V9.285h5.616v3.46Zm-7.22,0h-5.39V9.285h5.39v3.46Z" transform="translate(-1472)" fill="#fff" opacity="0.802"/>
</svg>
