<svg xmlns="http://www.w3.org/2000/svg" viewBox="0 0 839.45 45.1"><defs><style>.cls-1{fill:#fff;stroke:#fff;stroke-miterlimit:10;}</style></defs><g id="レイヤー_2" data-name="レイヤー 2"><g id="レイヤー_2-2" data-name="レイヤー 2"><path class="cls-1" d="M.5,4.75H37.44V42.21H37V38.88H1v3.33H.5Zm18.23.52H1V20.83H18.73ZM1,21.35v17H18.73v-17ZM19.2,5.27V20.83H37V5.27Zm0,33.09H37v-17H19.2Z"/><path class="cls-1" d="M69.29,2.36A114.38,114.38,0,0,0,90,15.21l-.14.42A119.84,119.84,0,0,1,68.73,2.55,115.85,115.85,0,0,1,47.64,15.63l-.15-.42A118.15,118.15,0,0,0,68.17,2.36ZM69,23H88.42v.47H49V23H68.49V14.83H55v-.47H68.49V8.08H69v6.28H82.42v.47H69ZM54.1,41.69V44.6h-.51V28.75H83.87V44.6h-.52V41.69Zm29.25-.47v-12H54.1v12Z"/><path class="cls-1" d="M101.58,26.13a18.13,18.13,0,0,1,6-14q6-5.43,15.42-5.44a17.59,17.59,0,0,1,12.59,4.69,15.67,15.67,0,0,1,4.94,11.86q0,7.55-3.79,12.26a14,14,0,0,1-10.13,5.27l0-.47a13.37,13.37,0,0,0,9.8-5.11q3.66-4.59,3.66-12a15.21,15.21,0,0,0-4.81-11.51A17,17,0,0,0,123,7.14h-1.26a131.46,131.46,0,0,1-1.78,13.71,68.72,68.72,0,0,1-2.33,9.28,22.71,22.71,0,0,1-2.67,5.58,9.72,9.72,0,0,1-2.74,2.89,5.14,5.14,0,0,1-2.67.75q-3,0-5.44-3.8A16.9,16.9,0,0,1,101.58,26.13ZM121.26,7.19q-8.72.55-13.94,5.81a17.84,17.84,0,0,0-5.23,13.13,16.21,16.21,0,0,0,2.37,9.11q2.37,3.59,5,3.59a4.73,4.73,0,0,0,2.34-.63,9.11,9.11,0,0,0,2.56-2.67A23.11,23.11,0,0,0,117,30.21a64.07,64.07,0,0,0,2.35-9.15Q120.51,15.21,121.26,7.19Z"/><path class="cls-1" d="M191.73,30v.47h-20.3a22.93,22.93,0,0,0,7.36,7.69,51.52,51.52,0,0,0,9.94-6.05l.33.38a51.53,51.53,0,0,1-9.75,5.95,34.35,34.35,0,0,0,12.93,4.92l-.09.52A34.8,34.8,0,0,1,179.33,39a22.84,22.84,0,0,1-8.41-8.58h-7.74V42.35q5.87-.7,13.36-2l.1.47q-10.74,1.88-21.15,2.86l0-.56,7.22-.66v-12h-7.5a28.7,28.7,0,0,1-3.66,12.61l-.47-.24q3.71-6.31,3.7-15.51V20.13h36.52v.47h-36v6.7c0,1.09,0,2,0,2.67ZM156,16.75h-.75V5h11.53V1.61h.52V5h10.55V1.61h.47V5h11.53V16.75ZM166.74,5.5h-11v5h11Zm-11,10.78h11V11h-11Zm2.86,9.14v-.51H189.1v.51ZM177.81,5.5H167.26v5h10.55ZM167.26,16.28h10.55V11H167.26Zm11-10.78v5h11v-5Zm11,10.78V11h-11v5.29Z"/><path class="cls-1" d="M242,31.38v.51H223.66q6.9,5.78,19.92,10l-.18.51Q229.75,38,222.82,31.8V44.13h-.47V31.8Q215.42,38,201.77,42.39l-.19-.51q13-4.23,19.93-10H203.13v-.51h19.22v-6H205.52v-.51h16.83V19.14H203.6v-.47h13.55a82.72,82.72,0,0,0-4.08-9.09H202.66V9.06h8.72a60.64,60.64,0,0,0-4-6.14l.42-.28a52.14,52.14,0,0,1,4.12,6.42H218V1.89h.47V9.06h8.15V1.89h.47V9.06h6.14a58.66,58.66,0,0,0,4.08-6.37l.47.23a50.26,50.26,0,0,1-3.94,6.14h8.63v.52H232.15a51.27,51.27,0,0,1-4.5,9.09h13.92v.47H222.82v5.77h16.83v.51H222.82v6ZM227,18.67a49.45,49.45,0,0,0,4.54-9.09h-18q2.58,5.25,4.13,9.09Z"/><path class="cls-1" d="M252.22,6.21h20.16V1.38h.46V6.21H293v.46H252.22Zm1.92,18.23v18.7h-.51V24h38V38.83c0,1.81-.2,3-.6,3.4s-1.41.68-3,.68q-1.37,0-6.05-.24l.09-.46q4.83.23,6,.23c1.4,0,2.27-.18,2.6-.54s.49-1.38.49-3.07V24.44Zm6-4.78h-.75V11h26.44v8.67Zm-.23-.52h25.4V11.5h-25.4Zm2.86,18.75v2.39h-.47V28.75h20.62v9.14Zm0-.51h19.68V29.22H262.77Z"/><path class="cls-1" d="M314.75,11.22v.52h-5.11L315.59,27l-.42.19-5.72-14.44V44.13H309V13.71a85,85,0,0,1-7.59,18.79l-.42-.23a80.75,80.75,0,0,0,7.92-20.53h-7.12v-.52H309V2.36h.47v8.86Zm7.73,9.89L323,21a36,36,0,0,0,7.93,13.45A34.28,34.28,0,0,0,339.17,21l.42.14A36.48,36.48,0,0,1,331.2,34.8q5.16,4.88,14.35,8.3l-.14.42q-9.53-3.48-14.58-8.39-5.54,5-15.1,8.43l-.14-.46q9.38-3.37,14.86-8.35A37.47,37.47,0,0,1,322.48,21.11Zm8.82-13.5h13.92v.52h-29.3V7.61h14.91V1.38h.47ZM316.44,22a34.63,34.63,0,0,0,9.47-11.58l.47.23a36.48,36.48,0,0,1-9.61,11.72Zm19.17-11.11.33-.33a81.07,81.07,0,0,1,9.33,11.67l-.33.23A83.33,83.33,0,0,0,335.61,10.85Z"/><path class="cls-1" d="M382.91,23.22q0,8.45-1.94,13.22t-4.52,4.78q-3.29,0-9-2.76l.14-.43c3.75,1.82,6.7,2.72,8.86,2.72a2.84,2.84,0,0,0,2-1.1,11.57,11.57,0,0,0,1.93-3.16,23,23,0,0,0,1.47-5.56,48.07,48.07,0,0,0,.57-7.71c0-1.22,0-2.51-.1-3.87a11.66,11.66,0,0,0-.61-3.47,2.94,2.94,0,0,0-1.36-1.82,5.71,5.71,0,0,0-1.71-.52q-.87-.12-5.13-.12h-6.09a141.72,141.72,0,0,1-10.36,28l-.43-.28A138.08,138.08,0,0,0,367,13.42H357v-.51h10.13q1.41-5.38,2.29-10.6l.52.1q-1,5.63-2.3,10.5h5.91l3.84,0a8.6,8.6,0,0,1,2.77.38,2.82,2.82,0,0,1,1.38,1,6.27,6.27,0,0,1,.7,1.36,9.39,9.39,0,0,1,.45,1.83,14.71,14.71,0,0,1,.21,2.32C382.91,20.62,382.91,21.75,382.91,23.22Zm4-15,.42-.14q2.3,4.83,4.9,11.75t4.1,12.3l-.56.14q-1.41-5.34-4-12.26T386.9,8.17Z"/><path class="cls-1" d="M406.67,27.16l.71-.56a29.26,29.26,0,0,1,8.55-5,26,26,0,0,1,9.35-2q6.15,0,9.42,2.56A8.68,8.68,0,0,1,438,29.46q0,12.23-20.39,12.28a77.66,77.66,0,0,1-8.43-.47l0-.52a77.5,77.5,0,0,0,8.39.47q19.94,0,19.93-11.76a8.2,8.2,0,0,0-3.12-6.94c-2.08-1.6-5.12-2.39-9.12-2.39a27,27,0,0,0-10.08,2.25,23.38,23.38,0,0,0-8.34,5.25l-.52-.33q1.32-7.12,2.35-14.91l.47,0Q408.21,19.66,406.67,27.16Zm4.88-21.38,0-.51a143.52,143.52,0,0,0,19.69,1.4v.47A138.9,138.9,0,0,1,411.55,5.78Z"/><path class="cls-1" d="M467.34,6.06h-.47l-8.76,34.22h-1.18l-8-34.59h.56L457.31,40h.47l8.76-34.27h1.18L476.48,40H477l7.83-34.27h.56l-8,34.59h-1.17Z"/><path class="cls-1" d="M508.38,40.28a17.71,17.71,0,0,0,7.17-1.4v.56a19.71,19.71,0,0,1-7.17,1.31q-11.07,0-11.06-12.7a20,20,0,0,1,.65-5.39,11.86,11.86,0,0,1,1.64-3.7A7.75,7.75,0,0,1,502,16.78a10.26,10.26,0,0,1,2.77-1.15,12.11,12.11,0,0,1,2.86-.33q9.38,0,9.37,12.28v.23H497.83Q497.83,40.29,508.38,40.28Zm-10.55-13h18.7q-.18-11.49-8.9-11.49Q498.21,15.81,497.83,27.3Z"/><path class="cls-1" d="M531.07,35.83h-.47v4.45h-.52V4.75h.52V20.27h.47a9.45,9.45,0,0,1,3.65-3.61,10.34,10.34,0,0,1,5.21-1.36,8.67,8.67,0,0,1,7.31,3.3q2.53,3.31,2.53,9.45t-2.55,9.4a8.69,8.69,0,0,1-7.29,3.3,10.52,10.52,0,0,1-5.21-1.33A9.27,9.27,0,0,1,531.07,35.83Zm18.23-7.78q0-6-2.41-9.12a8.27,8.27,0,0,0-7-3.12,10,10,0,0,0-6.54,2.3,6.78,6.78,0,0,0-2.79,5.35V32.6A6.82,6.82,0,0,0,533.39,38a10,10,0,0,0,6.54,2.29,8.22,8.22,0,0,0,6.93-3.16Q549.31,34,549.3,28.05Z"/><path class="cls-1" d="M578.64,37.89H596.4v.47h-36v-.47h17.77V8.6H561.86V8.13H595V8.6H578.64Z"/><path class="cls-1" d="M608,7.24l.24-.43a154.26,154.26,0,0,1,14,8.4l-.28.42A149.94,149.94,0,0,0,608,7.24Zm1.08,32.57q14.06-1.26,22.71-8.67t10.85-20.2l.52.09q-2.29,13-11,20.49t-23,8.76Z"/><path class="cls-1" d="M653.9,18.72l.1-.47q6.22,1.13,14.9,2.77l-.09.51Q660.14,19.85,653.9,18.72Zm1.92-12,.1-.47q8,1.27,15.89,2.77l-.14.51Q661.83,7.61,655.82,6.72Zm0,34.5q15.33-1.41,23.25-8.18t10.36-20.65l.52.1q-2.49,13.87-10.62,20.88t-23.41,8.37ZM681.75,2l.42-.33c1.47,2.15,2.86,4.44,4.17,6.84l-.47.24Q684,5.5,681.75,2Zm5.81-1,.37-.28c1.63,2.5,3.07,4.85,4.32,7l-.47.24Q689.95,4.66,687.56,1Z"/><path class="cls-1" d="M703.37,38.36v-.47h36.94v.47ZM706.7,8.6V8.13H737V8.6Z"/><path class="cls-1" d="M749.2,7.66V7.14h36.52v.71q-3.06,11.21-13.36,15.51l-.19-.42A22.18,22.18,0,0,0,780.28,17a25,25,0,0,0,5-9.37ZM765,13.38h.52q0,12-3.14,18.58a17.33,17.33,0,0,1-9.75,9.17l-.19-.42a16.62,16.62,0,0,0,9.54-9Q765.05,25.1,765,13.38Z"/><path class="cls-1" d="M806.16,18.86a56.29,56.29,0,0,1,4.41-4.92,4,4,0,0,1,2.72-1,4.44,4.44,0,0,1,2.69.87,61.77,61.77,0,0,1,4.81,4.28q8.67,8.31,18,16.32l-.37.42q-8.21-7.12-18-16.45a56.36,56.36,0,0,0-4.6-4.13,4.24,4.24,0,0,0-2.51-.8,3.66,3.66,0,0,0-2.5,1,55.09,55.09,0,0,0-4.22,4.71q-5.62,6.7-9.71,11.3l-.37-.33Q800.54,25.57,806.16,18.86Z"/></g></g></svg>