<svg xmlns="http://www.w3.org/2000/svg" viewBox="0 0 606.5 33.17"><defs><style>.cls-1{fill:#fff;stroke:#fff;stroke-miterlimit:10;stroke-width:0.5px;}</style></defs><g id="レイヤー_2" data-name="レイヤー 2"><g id="レイヤー_2-2" data-name="レイヤー 2"><path class="cls-1" d="M.25,3.74H28V31.83H27.6v-2.5H.6v2.5H.25Zm13.68.38H.6V15.79H13.93ZM.6,16.18V28.94H13.93V16.18ZM14.28,4.12V15.79H27.6V4.12Zm0,24.82H27.6V16.18H14.28Z"/><path class="cls-1" d="M50.52,1.24A86.07,86.07,0,0,0,66,10.87l-.11.32A89.94,89.94,0,0,1,50.1,1.38a87.29,87.29,0,0,1-15.82,9.81l-.1-.32a88.66,88.66,0,0,0,15.5-9.63Zm-.24,15.47H64.87v.35H35.34v-.35H49.93V10.59H39.84v-.35H49.93V5.53h.35v4.71H60.37v.35H50.28Zm-11.15,14v2.18h-.38V21H61.46V32.92h-.39V30.74Zm21.94-.36v-9H39.13v9Z"/><path class="cls-1" d="M71.51,19.42A13.6,13.6,0,0,1,76,8.9q4.45-4.08,11.56-4.07A13.18,13.18,0,0,1,97,8.34a11.71,11.71,0,0,1,3.71,8.9,14.19,14.19,0,0,1-2.85,9.19,10.53,10.53,0,0,1-7.59,3.95l0-.35a10,10,0,0,0,7.35-3.83,13.94,13.94,0,0,0,2.74-9A11.44,11.44,0,0,0,96.7,8.6a12.76,12.76,0,0,0-9.16-3.42h-1a97,97,0,0,1-1.33,10.28,51.32,51.32,0,0,1-1.74,7,17.35,17.35,0,0,1-2,4.18,7.33,7.33,0,0,1-2.05,2.17,3.94,3.94,0,0,1-2,.56q-2.2,0-4.07-2.85A12.57,12.57,0,0,1,71.51,19.42ZM86.28,5.21A15.61,15.61,0,0,0,75.82,9.57a13.38,13.38,0,0,0-3.92,9.85,12.18,12.18,0,0,0,1.77,6.83c1.19,1.8,2.45,2.69,3.78,2.69a3.6,3.6,0,0,0,1.76-.47,6.88,6.88,0,0,0,1.92-2,17.63,17.63,0,0,0,2-4,48.4,48.4,0,0,0,1.75-6.85C85.43,12.69,85.9,9.22,86.28,5.21Z"/><path class="cls-1" d="M136.69,22.3v.35H121.47A17.16,17.16,0,0,0,127,28.42a38.7,38.7,0,0,0,7.45-4.54l.25.28a38.84,38.84,0,0,1-7.31,4.47,25.77,25.77,0,0,0,9.7,3.69l-.07.38a26,26,0,0,1-9.62-3.62,17.11,17.11,0,0,1-6.31-6.43h-5.8v8.93c2.93-.35,6.27-.86,10-1.51l.07.35q-8.06,1.41-15.85,2.14l0-.42,5.41-.49v-9h-5.62a21.59,21.59,0,0,1-2.74,9.46l-.35-.18A22.69,22.69,0,0,0,109,20.29V14.92h27.39v.35h-27v5c0,.83,0,1.49,0,2Zm-26.82-9.92h-.57V3.56H118V1h.39V3.56h7.91V1h.35V3.56h8.65v8.82ZM118,4h-8.26V7.71H118ZM109.69,12H118v-4h-8.26Zm2.15,6.86V18.5h22.88v.39ZM126.25,4h-7.91V7.71h7.91ZM118.34,12h7.91v-4h-7.91ZM126.6,4V7.71h8.26V4ZM134.86,12v-4H126.6v4Z"/><path class="cls-1" d="M172.69,23.35v.39H158.91q5.18,4.32,14.94,7.49l-.14.38q-10.23-3.3-15.43-7.94v9.25h-.35V23.67q-5.2,4.63-15.44,7.94l-.14-.38q9.78-3.16,14.94-7.49H143.51v-.39h14.42V18.89H145.3V18.5h12.63V14.18H143.86v-.35H154A61.86,61.86,0,0,0,151,7h-7.8V6.62h6.54a46.6,46.6,0,0,0-3-4.61L147,1.8a40.2,40.2,0,0,1,3.09,4.82h4.57V1.24H155V6.62h6.12V1.24h.35V6.62h4.61a46.36,46.36,0,0,0,3.06-4.78l.35.17a39.12,39.12,0,0,1-3,4.61H173V7h-7.77a38.72,38.72,0,0,1-3.37,6.83h10.44v.35H158.28V18.5H170.9v.39H158.28v4.46Zm-11.25-9.52A36.91,36.91,0,0,0,164.85,7H151.39c1.29,2.63,2.32,4.9,3.09,6.83Z"/><path class="cls-1" d="M178.81,4.47h15.12V.85h.35V4.47h15.11v.36H178.81Zm1.44,13.68v14h-.39V17.8h28.48V28.94a4.36,4.36,0,0,1-.46,2.55q-.45.51-2.25.51c-.68,0-2.19-.06-4.53-.17l.07-.36c2.41.12,3.9.18,4.46.18,1.06,0,1.71-.14,2-.4a4.18,4.18,0,0,0,.37-2.31V18.15Zm4.5-3.59h-.56V8.06H204v6.5Zm-.18-.38h19.06V8.45H184.57Zm2.15,14.06V30h-.35V21.38h15.47v6.86Zm0-.39h14.76V21.74H186.72Z"/><path class="cls-1" d="M223.63,8.24v.38H219.8l4.47,11.43-.32.14L219.66,9.36V32.92h-.35V10.1a64.42,64.42,0,0,1-5.7,14.1L213.3,24a60.54,60.54,0,0,0,5.94-15.4h-5.35V8.24h5.42V1.59h.35V8.24Zm5.8,7.41.36-.1a27,27,0,0,0,5.94,10.09A25.81,25.81,0,0,0,242,15.55l.32.1A27.33,27.33,0,0,1,236,25.92a31.53,31.53,0,0,0,10.76,6.22l-.11.32q-7.12-2.61-10.93-6.29a34.26,34.26,0,0,1-11.32,6.32l-.1-.35a33.15,33.15,0,0,0,11.14-6.26A27.93,27.93,0,0,1,229.43,15.65ZM236,5.53h10.44v.39h-22V5.53h11.18V.85H236ZM224.9,16.29A25.84,25.84,0,0,0,232,7.6l.35.18a27.35,27.35,0,0,1-7.21,8.79ZM239.28,8l.24-.24a60.9,60.9,0,0,1,7,8.75l-.25.18A62.35,62.35,0,0,0,239.28,8Z"/><path class="cls-1" d="M272,17.24a26.91,26.91,0,0,1-1.46,9.91q-1.45,3.59-3.39,3.59-2.46,0-6.75-2.08l.11-.32a16.64,16.64,0,0,0,6.64,2,2.1,2.1,0,0,0,1.53-.82,8.66,8.66,0,0,0,1.44-2.38A17.16,17.16,0,0,0,271.27,23a36.74,36.74,0,0,0,.42-5.78c0-.92,0-1.89-.07-2.9a9,9,0,0,0-.46-2.61,2.22,2.22,0,0,0-1-1.37,4.08,4.08,0,0,0-1.28-.38c-.43-.06-1.72-.09-3.85-.09h-4.57a106.07,106.07,0,0,1-7.77,21l-.31-.21a103.9,103.9,0,0,0,7.73-20.78H252.6V9.5h7.6q1.05-4,1.72-7.94l.38.07c-.51,2.81-1.09,5.43-1.72,7.87H265l2.88,0A6.32,6.32,0,0,1,270,9.8a2.15,2.15,0,0,1,1,.76,4.46,4.46,0,0,1,.52,1,8,8,0,0,1,.34,1.37,13.88,13.88,0,0,1,.16,1.74C272,15.28,272,16.13,272,17.24ZM275,6l.32-.11q1.72,3.63,3.67,8.81t3.08,9.23l-.42.11q-1.06-4-3-9.2T275,6Z"/><path class="cls-1" d="M291,20.19l.52-.42A22.18,22.18,0,0,1,298,16a19.47,19.47,0,0,1,7-1.49q4.61,0,7.07,1.91a6.53,6.53,0,0,1,2.46,5.47q0,9.18-15.29,9.21a58.94,58.94,0,0,1-6.33-.35l0-.39a56.2,56.2,0,0,0,6.29.36q14.94,0,14.94-8.83a6.15,6.15,0,0,0-2.34-5.2c-1.56-1.2-3.84-1.79-6.84-1.79a20.3,20.3,0,0,0-7.55,1.68,17.52,17.52,0,0,0-6.26,3.94l-.39-.25q1-5.34,1.76-11.18l.35,0Q292.19,14.57,291,20.19Zm3.65-16,0-.39a108.3,108.3,0,0,0,14.76,1.06v.35A105.35,105.35,0,0,1,294.68,4.16Z"/><path class="cls-1" d="M336.32,4.37H336L329.39,30h-.88l-6-25.94h.42l5.87,25.7h.36l6.57-25.7h.88l6.57,25.7h.35l5.88-25.7h.42l-6,25.94h-.88Z"/><path class="cls-1" d="M362,30A13.24,13.24,0,0,0,367.36,29v.42a14.64,14.64,0,0,1-5.38,1q-8.3,0-8.3-9.52a15,15,0,0,1,.5-4.05A8.64,8.64,0,0,1,355.41,14a5.83,5.83,0,0,1,1.79-1.64,7.53,7.53,0,0,1,2.07-.86,9.38,9.38,0,0,1,2.15-.25c4.69,0,7,3.08,7,9.21v.18H354.07Q354.07,30,362,30Zm-7.91-9.74h14q-.15-8.61-6.68-8.61Q354.35,11.68,354.07,20.29Z"/><path class="cls-1" d="M374.46,26.69h-.35V30h-.39V3.38h.39V15h.35a7.14,7.14,0,0,1,2.74-2.71,7.79,7.79,0,0,1,3.91-1,6.48,6.48,0,0,1,5.48,2.48c1.27,1.65,1.9,4,1.9,7.09s-.64,5.39-1.92,7.05a6.49,6.49,0,0,1-5.46,2.47,7.87,7.87,0,0,1-3.91-1A7,7,0,0,1,374.46,26.69Zm13.68-5.83c0-3-.61-5.28-1.81-6.84a6.21,6.21,0,0,0-5.22-2.34,7.54,7.54,0,0,0-4.91,1.72,5.11,5.11,0,0,0-2.09,4v6.86a5.13,5.13,0,0,0,2.09,4A7.48,7.48,0,0,0,381.11,30a6.18,6.18,0,0,0,5.2-2.37Q388.14,25.29,388.14,20.86Z"/><path class="cls-1" d="M410.47,28.24h13.32v.35h-27v-.35h13.33v-22H397.88V5.92H422.7v.35H410.47Z"/><path class="cls-1" d="M434.48,5.25l.18-.32a116.91,116.91,0,0,1,10.51,6.29l-.21.32A113.83,113.83,0,0,0,434.48,5.25Zm.81,24.43q10.54-.95,17-6.5T460.46,8l.39.07q-1.73,9.75-8.26,15.37T435.32,30Z"/><path class="cls-1" d="M469.46,13.86l.07-.35q4.68.84,11.18,2.07l-.07.39Q474.13,14.71,469.46,13.86Zm1.44-9,.07-.35q6,.95,11.92,2.07l-.1.39Q475.4,5.53,470.9,4.86Zm0,25.88q11.5-1.06,17.44-6.14t7.77-15.49l.39.07q-1.87,10.41-8,15.67T471,31.12ZM490.34,1.31l.32-.25q1.65,2.43,3.13,5.14l-.35.17C492.52,4.75,491.49,3.07,490.34,1.31ZM494.7.57,495,.36c1.22,1.88,2.3,3.63,3.24,5.27l-.35.18C497,4.15,495.9,2.4,494.7.57Z"/><path class="cls-1" d="M504.44,28.59v-.35h27.7v.35Zm2.5-22.32V5.92h22.71v.35Z"/><path class="cls-1" d="M541.14,5.56V5.18h27.39V5.7a16.63,16.63,0,0,1-10,11.64l-.14-.32a16.52,16.52,0,0,0,6.08-4.43,18.57,18.57,0,0,0,3.73-7ZM553,9.85h.38q0,9-2.35,13.94a13,13,0,0,1-7.31,6.88l-.14-.32a12.48,12.48,0,0,0,7.15-6.77Q553,18.65,553,9.85Z"/><path class="cls-1" d="M581.71,14a41.16,41.16,0,0,1,3.31-3.7,3,3,0,0,1,2-.77,3.38,3.38,0,0,1,2,.65q.9.66,3.6,3.22,6.51,6.23,13.47,12.23l-.28.32q-6.15-5.34-13.5-12.34a41.55,41.55,0,0,0-3.45-3.09,3.17,3.17,0,0,0-1.88-.6,2.76,2.76,0,0,0-1.88.75A43.41,43.41,0,0,0,582,14.18q-4.23,5-7.28,8.47l-.28-.25Q577.5,19,581.71,14Z"/></g></g></svg>